<svg width="24" height="33" viewBox="0 0 24 33" fill="none" xmlns="http://www.w3.org/2000/svg">
<path fill-rule="evenodd" clip-rule="evenodd" d="M0 0.220703V32.2207H24V0.220703H0ZM7.91135 27.6523C7.71631 27.8444 7.40071 27.8444 7.20922 27.6523L5.97518 26.4368L4.74113 27.6523C4.5461 27.8444 4.2305 27.8444 4.03901 27.6523C3.84752 27.4602 3.84397 27.1493 4.03901 26.9572L5.27305 25.7418L4.03901 24.5263C3.85461 24.3342 3.85816 24.0303 4.04965 23.8417C4.24113 23.6531 4.54965 23.6496 4.74468 23.8313L5.97872 25.0467L7.21277 23.8313C7.4078 23.6462 7.71986 23.6496 7.91135 23.8383C8.10284 24.0269 8.10638 24.3307 7.91844 24.5263L6.6844 25.7418L7.91844 26.9572C8.11348 27.1493 8.11348 27.4602 7.91844 27.6523H7.91135ZM8.39007 14.5966L5.21631 17.7226C5.12411 17.8169 4.99645 17.8658 4.86525 17.8658C4.73404 17.8658 4.60638 17.8134 4.51418 17.7226L3.54965 16.7725C3.4539 16.6817 3.40426 16.556 3.40426 16.4268C3.40426 16.2975 3.45745 16.1718 3.54965 16.081C3.74468 15.8889 4.06028 15.8889 4.25532 16.081L4.86879 16.6852L7.69149 13.9051C7.88653 13.713 8.20213 13.713 8.39716 13.9051C8.5922 14.0971 8.5922 14.408 8.39716 14.6001L8.39007 14.5966ZM8.39007 5.48418L5.21631 8.61014C5.12411 8.70444 4.99645 8.75334 4.86525 8.75334C4.73404 8.75334 4.60638 8.70095 4.51418 8.61014L3.54965 7.66013C3.4539 7.56582 3.40426 7.44358 3.40426 7.31086C3.40426 7.17814 3.45745 7.05589 3.54965 6.96508C3.74468 6.77298 4.06028 6.77298 4.25532 6.96508L4.86879 7.56932L7.69149 4.78914C7.88653 4.59704 8.20213 4.59704 8.39716 4.78914C8.5922 4.98124 8.5922 5.29208 8.39716 5.48418H8.39007ZM17.0922 27.3205H10.8262C10.5567 27.3135 10.3404 27.0969 10.3404 26.8315C10.3404 26.566 10.5567 26.346 10.8262 26.339H17.0922C17.3617 26.346 17.578 26.5625 17.578 26.8315C17.578 27.1004 17.3617 27.3135 17.0922 27.3205ZM10.3404 8.59966C10.3404 8.33422 10.5567 8.11418 10.8262 8.10719H17.0957C17.3652 8.11418 17.5816 8.33072 17.5816 8.59966C17.5816 8.8686 17.3652 9.08165 17.0957 9.09213H10.8262C10.5567 9.08514 10.3404 8.8686 10.3404 8.59966ZM20.1135 25.1515H10.8298C10.5603 25.1445 10.344 24.928 10.344 24.659C10.344 24.3901 10.5603 24.1735 10.8298 24.1666H20.1135C20.383 24.1735 20.5993 24.3901 20.5993 24.659C20.5993 24.928 20.383 25.1445 20.1135 25.1515ZM10.3404 17.7156C10.3404 17.4501 10.5567 17.2301 10.8262 17.2231H17.0922C17.3617 17.2301 17.578 17.4466 17.578 17.7156C17.578 17.9845 17.3617 18.1976 17.0922 18.2045H10.8262C10.5567 18.1976 10.3404 17.981 10.3404 17.7156ZM20.1135 16.0391H10.8298C10.5603 16.0321 10.344 15.8156 10.344 15.5466C10.344 15.2777 10.5603 15.0611 10.8298 15.0541H20.1135C20.383 15.0611 20.5993 15.2777 20.5993 15.5466C20.5993 15.8156 20.383 16.0321 20.1135 16.0391ZM20.1135 6.92317H10.8262C10.5567 6.91618 10.3404 6.69964 10.3404 6.4307C10.3404 6.16176 10.5567 5.94522 10.8262 5.93823H20.1135C20.383 5.94522 20.5993 6.16176 20.5993 6.4307C20.5993 6.69964 20.383 6.91618 20.1135 6.92317Z" fill="white"/>
</svg>
