<svg width="48" height="45" viewBox="0 0 48 45" fill="none" xmlns="http://www.w3.org/2000/svg">
<path d="M30.4055 23.2806C34.024 19.6116 34.024 13.663 30.4055 9.99397C26.787 6.32498 20.9202 6.32498 17.3017 9.99397C13.6832 13.663 13.6832 19.6116 17.3017 23.2806C20.9202 26.9496 26.787 26.9496 30.4055 23.2806Z" stroke="#F6F2EA" stroke-width="0.96" stroke-miterlimit="10"/>
<path d="M23.8512 26.4923C22.8209 26.4923 21.8219 26.6264 20.8699 26.877V26.8734L20.809 26.8928C20.4 27.0022 19.9997 27.1346 19.6099 27.2864L8.87521 30.8086V22.5112C8.87521 20.3301 7.13135 18.5601 4.9785 18.5601C2.82739 18.5601 1.08179 20.3283 1.08179 22.5112V36.4661H1.08875C1.10789 36.7961 1.16707 37.1279 1.27323 37.4579C1.93631 39.5331 4.13267 40.6713 6.17936 39.999L12.0201 38.0825C12.0149 38.2202 12.0131 38.3578 12.0131 38.4972V42.1518H35.691V38.4972C35.691 31.8674 30.3898 26.4923 23.8512 26.4923Z" stroke="#F6F2EA" stroke-width="0.96" stroke-miterlimit="10"/>
<path d="M41.1053 17.9566C40.6929 17.9566 40.3396 18.1066 40.042 18.4084C39.7461 18.7083 39.5964 19.086 39.5964 19.536C39.5964 19.9542 39.7409 20.3124 40.0298 20.6142C40.3187 20.9142 40.6772 21.0659 41.1053 21.0659C41.5335 21.0659 41.9007 20.9159 42.2053 20.6142C42.5098 20.3124 42.663 19.9542 42.663 19.536C42.663 19.0842 42.5098 18.7083 42.2053 18.4084C41.9007 18.1066 41.5335 17.9566 41.1053 17.9566Z" stroke="#F6F2EA" stroke-width="0.96" stroke-miterlimit="10"/>
<path d="M46.1733 3.72994C45.6791 2.90232 45.0073 2.25469 44.158 1.78705C43.3087 1.31942 42.341 1.08472 41.2533 1.08472C40.0663 1.08472 39.0273 1.3353 38.138 1.83646C37.2487 2.33762 36.556 3.03114 36.0617 3.91699C35.5674 4.80285 35.3203 5.82283 35.3203 6.97515C35.3203 7.2769 35.4195 7.52749 35.6179 7.72689C35.8163 7.9263 36.0635 8.02688 36.3593 8.02688C36.6726 8.02688 36.9232 7.9263 37.1129 7.72689C37.3026 7.52572 37.3966 7.27514 37.3966 6.97515C37.3966 6.20576 37.548 5.53342 37.8543 4.95638C38.1589 4.37933 38.5957 3.92405 39.1648 3.59053C39.7339 3.25701 40.4301 3.08937 41.255 3.08937C41.9808 3.08937 42.6108 3.24466 43.1468 3.55347C43.6828 3.86229 44.0988 4.27698 44.3947 4.79403C44.6923 5.31284 44.8402 5.88106 44.8402 6.49869C44.8402 7.30161 44.6992 7.97394 44.419 8.51746C44.1388 9.06097 43.7803 9.54978 43.3435 9.98389C42.9066 10.418 42.4402 10.8609 41.9459 11.3127C41.3351 11.8809 40.8704 12.5497 40.5484 13.3191C40.2264 14.0885 40.0663 14.8067 40.0663 15.4755C40.0663 15.7931 40.1655 16.0561 40.3622 16.2661C40.5606 16.4761 40.8077 16.5802 41.1036 16.5802C41.4169 16.5802 41.6727 16.4761 41.8694 16.2661C42.0678 16.0578 42.167 15.7949 42.167 15.4755C42.167 15.0573 42.2488 14.5597 42.4141 13.9844C42.5794 13.4073 42.8997 12.9026 43.3783 12.4668C44.0379 11.8827 44.6313 11.318 45.1587 10.7745C45.686 10.2309 46.1107 9.62919 46.4326 8.96921C46.7546 8.30923 46.9147 7.5116 46.9147 6.57457C46.9147 5.50519 46.6676 4.5558 46.1733 3.72994Z" stroke="#F6F2EA" stroke-width="0.96" stroke-miterlimit="10"/>
<path d="M41.7406 40.1366C41.7406 42.8224 39.5929 45 36.9441 45C34.2952 45 32.1476 42.8224 32.1476 40.1366C32.1476 37.4508 34.2952 35.2732 36.9441 35.2732C39.5929 35.2732 41.7406 37.4508 41.7406 40.1366Z" fill="#ED1775"/>
<path d="M15.8489 7.37218C15.8489 8.60568 14.8621 9.60624 13.6456 9.60624C12.4291 9.60624 11.4423 8.60568 11.4423 7.37218C11.4423 6.13868 12.4291 5.13812 13.6456 5.13812C14.8621 5.13812 15.8489 6.13868 15.8489 7.37218Z" fill="#3FB9C2"/>
</svg>
