<svg width="48" height="46" viewBox="0 0 48 46" fill="none" xmlns="http://www.w3.org/2000/svg">
<path d="M45.4683 8.83923H4.28325V44.9278H45.4683V8.83923Z" stroke="#F6F2EA" stroke-width="0.96" stroke-miterlimit="10"/>
<path d="M17.3661 15.1669H10.2714V27.5871H17.3661V15.1669Z" stroke="#F6F2EA" stroke-width="0.96" stroke-miterlimit="10"/>
<path d="M28.4223 15.1669H21.3276V27.5871H28.4223V15.1669Z" stroke="#F6F2EA" stroke-width="0.96" stroke-miterlimit="10"/>
<path d="M39.4786 15.1669H32.3839V27.5871H39.4786V15.1669Z" stroke="#F6F2EA" stroke-width="0.96" stroke-miterlimit="10"/>
<path d="M33.0553 5.2645V1.07373L24.8742 1.07373V5.2645L33.0553 5.2645Z" stroke="#F6F2EA" stroke-width="0.96" stroke-miterlimit="10"/>
<path d="M25.3669 33.9163H14.923V44.9262H25.3669V33.9163Z" stroke="#F6F2EA" stroke-width="0.96" stroke-miterlimit="10"/>
<path d="M35.8108 33.9163H25.3669V44.9262H35.8108V33.9163Z" stroke="#F6F2EA" stroke-width="0.96" stroke-miterlimit="10"/>
<path d="M24.8758 2.60535V8.88382" stroke="#F6F2EA" stroke-width="0.96" stroke-miterlimit="10"/>
<path d="M8.56493 16.0379C8.56493 18.376 6.64711 20.2717 4.28169 20.2717C1.91627 20.2717 0 18.376 0 16.0379C0 13.6998 1.91782 11.8041 4.28324 11.8041C6.64866 11.8041 8.56649 13.6998 8.56649 16.0379" fill="#ED1775"/>
<path d="M48 33.2235C48 34.2973 47.1188 35.1683 46.0324 35.1683C44.9461 35.1683 44.0649 34.2973 44.0649 33.2235C44.0649 32.1497 44.9461 31.2786 46.0324 31.2786C47.1188 31.2786 48 32.1497 48 33.2235Z" fill="#3FB9C2"/>
</svg>
