<svg width="54" height="33" viewBox="0 0 54 33" fill="none" xmlns="http://www.w3.org/2000/svg">
<g clip-path="url(#clip0_1_423)">
<path d="M17.2131 18.7823H0.5C0.5 14.1456 4.23969 10.3847 8.8547 10.3847C13.4697 10.3847 17.2131 14.1419 17.2131 18.7823Z" fill="white"/>
<path d="M8.8547 9.79338C11.4858 9.79338 13.6187 7.65047 13.6187 5.00704C13.6187 2.36362 11.4858 0.220703 8.8547 0.220703C6.22362 0.220703 4.0907 2.36362 4.0907 5.00704C4.0907 7.65047 6.22362 9.79338 8.8547 9.79338Z" fill="white"/>
<path d="M53.5 18.7823H36.7869C36.7869 14.1456 40.5266 10.3847 45.1416 10.3847C49.7566 10.3847 53.5 14.1419 53.5 18.7823Z" fill="white"/>
<path d="M45.1453 9.79338C47.7764 9.79338 49.9093 7.65047 49.9093 5.00704C49.9093 2.36362 47.7764 0.220703 45.1453 0.220703C42.5142 0.220703 40.3813 2.36362 40.3813 5.00704C40.3813 7.65047 42.5142 9.79338 45.1453 9.79338Z" fill="white"/>
<path d="M39.6885 32.2207H14.3152C14.3152 25.1815 19.9955 19.4746 27.0019 19.4746C34.0082 19.4746 39.6885 25.1815 39.6885 32.2207Z" fill="white"/>
<path d="M27.0019 18.5764C30.9968 18.5764 34.2354 15.3227 34.2354 11.309C34.2354 7.29528 30.9968 4.04153 27.0019 4.04153C23.0069 4.04153 19.7683 7.29528 19.7683 11.309C19.7683 15.3227 23.0069 18.5764 27.0019 18.5764Z" fill="white"/>
</g>
<defs>
<clipPath id="clip0_1_423">
<rect width="53" height="32" fill="white" transform="translate(0.5 0.220703)"/>
</clipPath>
</defs>
</svg>
