<svg width="32" height="33" viewBox="0 0 32 33" fill="none" xmlns="http://www.w3.org/2000/svg">
<path d="M0.729221 19.4837L2.62622 20.093V25.7767C2.62622 26.9743 3.60966 27.9454 4.82246 27.9454H9.54715L10.5293 31.3443C10.7152 31.9848 11.3901 32.3558 12.0387 32.1749L24.6941 28.6094C25.3427 28.4258 25.7185 27.7593 25.5339 27.1188L23.6606 20.6373C25.3441 18.9059 26.4646 16.7175 26.8772 14.3524H30.8426C31.4819 14.3524 32 13.8407 32 13.2094C32 12.578 31.4819 12.0664 30.8426 12.0664H19.1111L16.8371 16.732C16.6446 17.1265 16.2386 17.3777 15.7944 17.3777H15.6757C15.1893 17.3321 14.7846 16.9898 14.6633 16.5211L13.175 10.6228L11.684 13.5557C11.4862 13.9398 11.0868 14.1819 10.6518 14.1819H7.03062C6.39127 14.1819 5.87318 13.6703 5.87318 13.0389C5.87318 12.4076 6.39127 11.896 7.03062 11.896H9.94005L12.5081 6.86309V6.8644C12.7256 6.43743 13.1883 6.19008 13.6695 6.24214C14.1493 6.29551 14.5461 6.63658 14.6634 7.10001L16.1386 12.889L17.3435 10.43C17.5359 10.0342 17.942 9.78297 18.3862 9.78297H26.7928C25.9465 5.83986 23.1622 2.57494 19.371 1.08061C15.5798 -0.413852 11.2833 0.0600072 7.92035 2.34336C4.5561 4.6267 2.57065 8.41864 2.626 12.4491L0.0909621 18.0651C-0.0303207 18.3346 -0.0303207 18.6444 0.0909621 18.9139C0.212245 19.1847 0.444268 19.3916 0.728998 19.4841L0.729221 19.4837Z" fill="white"/>
</svg>
