<svg width="210" height="43" viewBox="0 0 210 43" fill="none" xmlns="http://www.w3.org/2000/svg">
<g clip-path="url(#clip0_1_221)">
<path d="M7.87345 14.2442C8.21395 14.6666 8.39914 15.1962 8.38719 15.7376C8.38719 16.5647 8.1124 17.2132 7.55683 17.6773C7.00127 18.1414 6.20676 18.3735 5.17329 18.3735H0.657104V8.70479H5.06576C6.05144 8.70479 6.81608 8.91899 7.3597 9.34738C7.90331 9.77578 8.17213 10.3886 8.17213 11.18C8.17213 11.7631 8.01682 12.251 7.70618 12.6377C7.39554 13.0245 6.96543 13.2922 6.48752 13.3993C7.06698 13.5302 7.53294 13.8158 7.87345 14.2442ZM3.0048 12.6556H4.54007C5.3525 12.6556 5.75872 12.3105 5.75872 11.6143C5.75872 10.9182 5.34056 10.5731 4.5102 10.5731H3.0048V12.6556ZM5.98573 15.4044C5.98573 15.0593 5.87222 14.7856 5.63925 14.5893C5.41224 14.3929 5.08368 14.2977 4.66552 14.2977H3.0048V16.4695H4.67747C5.54964 16.4695 5.98573 16.1125 5.98573 15.4044Z" fill="#10152A"/>
<path d="M17.2403 10.7397V18.3675H14.8807V16.9871C14.6656 17.4274 14.3251 17.8023 13.901 18.0522C13.4649 18.314 12.9631 18.4508 12.3837 18.4508C11.5055 18.4508 10.8125 18.1593 10.2928 17.5762C9.77311 16.9931 9.51624 16.1898 9.51624 15.1664V10.7337H11.852V14.8749C11.852 15.3925 11.9894 15.7971 12.2582 16.0827C12.527 16.3683 12.8914 16.5111 13.3514 16.5111C13.8293 16.5111 14.2057 16.3624 14.4745 16.0589C14.7433 15.7555 14.8867 15.3271 14.8867 14.7737V10.7278L17.2403 10.7397Z" fill="#10152A"/>
<path d="M19.0265 7.71114C19.2834 7.47909 19.6239 7.36009 20.0421 7.36009C20.4603 7.36009 20.8008 7.47314 21.0576 7.71114C21.3085 7.93129 21.4519 8.25854 21.4459 8.59173C21.4519 8.92493 21.3085 9.24028 21.0636 9.46043C20.8067 9.69247 20.4662 9.81147 20.0481 9.81147C19.6299 9.81147 19.2894 9.69842 19.0325 9.46043C18.7816 9.24028 18.6442 8.92493 18.6502 8.59173C18.6382 8.25854 18.7756 7.93724 19.0265 7.71114ZM21.207 10.7397V18.3675H18.8593V10.7397H21.207Z" fill="#10152A"/>
<path d="M25.1795 8.25259V18.3735H22.8318V8.25259H25.1795Z" fill="#10152A"/>
<path d="M31.219 11.0431C31.6312 11.299 31.9538 11.6738 32.139 12.1201V8.24664H34.4867V18.3675H32.139V16.9871C31.9538 17.4334 31.6312 17.8142 31.219 18.0641C30.7949 18.3259 30.2931 18.4627 29.7077 18.4627C29.1103 18.4746 28.5189 18.308 28.0111 17.9927C27.5093 17.6773 27.121 17.2251 26.8283 16.6301C26.5356 16.0351 26.3982 15.3449 26.3982 14.5536C26.3982 13.7504 26.5416 13.0602 26.8283 12.4711C27.115 11.8821 27.5093 11.4358 28.0111 11.1145C28.5189 10.7992 29.1103 10.6326 29.7077 10.6445C30.2931 10.6445 30.7949 10.7813 31.219 11.0431ZM29.2477 13.1911C28.943 13.5183 28.7877 13.9765 28.7877 14.5595C28.7877 15.1426 28.943 15.6008 29.2477 15.928C29.5524 16.2553 29.9586 16.4219 30.4604 16.4219C30.9562 16.4219 31.3624 16.2553 31.6731 15.9161C31.9897 15.577 32.145 15.1307 32.145 14.5595C32.145 13.9884 31.9897 13.5302 31.6731 13.197C31.3564 12.8638 30.9562 12.6972 30.4604 12.6972C29.9645 12.6972 29.5583 12.8638 29.2477 13.1911Z" fill="#10152A"/>
<path d="M36.2729 7.71114C36.5297 7.47909 36.8643 7.36009 37.2884 7.36009C37.7126 7.36009 38.0471 7.47314 38.304 7.71114C38.5549 7.93724 38.6982 8.25854 38.6863 8.59173C38.6923 8.92493 38.5549 9.24028 38.304 9.46043C38.0471 9.69247 37.7066 9.81147 37.2884 9.81147C36.8703 9.81147 36.5297 9.69842 36.2729 9.46043C36.022 9.24028 35.8786 8.92493 35.8906 8.59173C35.8786 8.25854 36.016 7.93724 36.2729 7.71114ZM38.4533 10.7397V18.3675H36.1056V10.7397H38.4533Z" fill="#10152A"/>
<path d="M47.0257 11.537C47.5454 12.1201 47.8023 12.9233 47.8023 13.9407V18.3735H45.4546V14.2144C45.4546 13.7027 45.3172 13.3041 45.0484 13.0185C44.7796 12.7329 44.4211 12.5901 43.9731 12.5901C43.4952 12.5901 43.1188 12.7389 42.8381 13.0423C42.5573 13.3458 42.4199 13.7741 42.4199 14.3275V18.3735H40.0722V10.7397H42.4199V12.1379C42.635 11.6917 42.9755 11.3109 43.3996 11.055C43.8357 10.7932 44.3435 10.6564 44.9289 10.6564C45.813 10.6623 46.512 10.9539 47.0257 11.537Z" fill="#10152A"/>
<path d="M53.7761 11.0431C54.1883 11.299 54.5168 11.6738 54.708 12.1201V10.7397H57.0437V18.3318C57.0557 18.9923 56.9123 19.6527 56.6375 20.2537C56.3627 20.8248 55.9207 21.2949 55.3711 21.6162C54.8036 21.9553 54.0986 22.1219 53.2563 22.1219C52.1034 22.1219 51.1775 21.8482 50.4905 21.3068C49.8035 20.7653 49.3853 20.0276 49.2479 19.0994H51.5658C51.6315 19.3969 51.8107 19.6587 52.0676 19.8253C52.3304 19.9978 52.6709 20.0871 53.0891 20.0871C53.573 20.0871 53.9672 19.9502 54.2659 19.6706C54.5646 19.3909 54.7139 18.9506 54.7139 18.3378V16.9931C54.5228 17.4393 54.1942 17.8142 53.782 18.07C53.3579 18.3318 52.8561 18.4687 52.2707 18.4687C51.6733 18.4806 51.0819 18.314 50.5741 17.9986C50.0723 17.6833 49.684 17.2311 49.3913 16.6361C49.0986 16.0411 48.9612 15.3509 48.9612 14.5595C48.9612 13.7563 49.1046 13.0661 49.3913 12.4771C49.678 11.888 50.0723 11.4418 50.5741 11.1205C51.0819 10.8051 51.6733 10.6385 52.2707 10.6504C52.8501 10.6445 53.3519 10.7813 53.7761 11.0431ZM51.8047 13.1911C51.5 13.5183 51.3447 13.9764 51.3447 14.5595C51.3447 15.1426 51.5 15.6008 51.8047 15.928C52.1094 16.2553 52.5156 16.4219 53.0174 16.4219C53.5132 16.4219 53.9135 16.2553 54.2301 15.9161C54.5467 15.577 54.702 15.1307 54.702 14.5595C54.702 13.9883 54.5467 13.5302 54.2301 13.197C53.9135 12.8638 53.5072 12.6972 53.0174 12.6972C52.5156 12.6972 52.1094 12.8579 51.8047 13.1911Z" fill="#10152A"/>
<path d="M7.87345 26.0965C8.21395 26.519 8.39316 27.0485 8.38719 27.584C8.38719 28.411 8.1124 29.0596 7.55683 29.5237C7.00127 29.9878 6.20676 30.2198 5.17329 30.2198H0.657104V20.5571H5.06576C6.05144 20.5571 6.81608 20.7713 7.3597 21.1997C7.89734 21.6281 8.17213 22.2409 8.17213 23.0323C8.17213 23.6154 8.01682 24.1033 7.70618 24.49C7.40152 24.8768 6.96543 25.1445 6.48752 25.2516C7.06698 25.3825 7.53294 25.6681 7.87345 26.0965ZM3.0048 24.5079H4.54007C5.3525 24.5079 5.75872 24.1628 5.75872 23.4666C5.75872 22.7705 5.34056 22.4254 4.5102 22.4254H3.0048V24.5079ZM5.98573 27.2567C5.98573 26.9117 5.87222 26.638 5.63925 26.4416C5.41224 26.2453 5.08368 26.1501 4.66552 26.1501H3.0048V28.3218H4.67747C5.54964 28.3218 5.98573 27.9648 5.98573 27.2567Z" fill="#10152A"/>
<path d="M16.8341 26.8343H11.5234C11.5533 27.4055 11.6967 27.822 11.9655 28.0719C12.2343 28.3218 12.5688 28.4467 12.981 28.4467C13.3275 28.4467 13.6143 28.3575 13.8472 28.1849C14.0683 28.0183 14.2296 27.7803 14.3012 27.5126H16.7863C16.6908 28.0421 16.4638 28.536 16.1292 28.9525C15.7827 29.3809 15.3407 29.726 14.8389 29.9521C14.2893 30.202 13.6979 30.321 13.0945 30.315C12.3418 30.315 11.6788 30.1603 11.0993 29.845C10.5198 29.5356 10.0479 29.0596 9.7313 28.4824C9.40274 27.8874 9.23547 27.1972 9.23547 26.4059C9.23547 25.6027 9.39677 24.9065 9.72532 24.3234C10.036 23.7463 10.5139 23.2762 11.0933 22.9668C11.6788 22.6515 12.3478 22.4968 13.1005 22.4968C13.8592 22.4968 14.5283 22.6515 15.1077 22.9609C15.6692 23.2584 16.1352 23.7106 16.4399 24.2639C16.7565 24.8232 16.9178 25.4658 16.9178 26.1977C16.8998 26.4178 16.876 26.626 16.8341 26.8343ZM14.122 24.7221C13.8413 24.4722 13.5008 24.3472 13.0826 24.3472C12.6525 24.3472 12.2941 24.4722 12.0133 24.728C11.7325 24.9839 11.5712 25.3587 11.5354 25.8466H14.5283C14.5342 25.3468 14.4028 24.972 14.122 24.7221Z" fill="#10152A"/>
<path d="M22.4615 28.2147V30.2258H21.4041C20.508 30.2258 19.8091 30.0056 19.3133 29.5653C18.8174 29.125 18.5665 28.3932 18.5606 27.3698V24.5614H17.5331V22.592H18.5606V20.7178H20.9083V22.592H22.4435V24.5614H20.9083V27.4055C20.9083 27.7089 20.968 27.9172 21.0935 28.0362C21.2189 28.1552 21.422 28.2147 21.7207 28.2147H22.4615Z" fill="#10152A"/>
<path d="M28.1127 28.2147V30.2258H27.0613C26.1652 30.2258 25.4663 30.0056 24.9704 29.5653C24.4746 29.125 24.2237 28.3932 24.2237 27.3698V24.5614H23.1902V22.592H24.2237V20.7178H26.5714V22.592H28.1067V24.5614H26.5654V27.4055C26.5654 27.7089 26.6252 27.9172 26.7506 28.0362C26.8761 28.1552 27.0852 28.2147 27.3779 28.2147H28.1127Z" fill="#10152A"/>
<path d="M36.6432 26.8343H31.3325C31.3624 27.4055 31.5058 27.822 31.7746 28.0719C32.0374 28.3218 32.3779 28.4467 32.7901 28.4467C33.1366 28.4467 33.4233 28.3575 33.6563 28.1849C33.8774 28.0183 34.0386 27.7803 34.1103 27.5126H36.5954C36.4998 28.0421 36.2728 28.536 35.9383 28.9525C35.5918 29.3809 35.1498 29.726 34.648 29.9521C34.0984 30.202 33.507 30.321 32.9036 30.315C32.1509 30.315 31.4878 30.1603 30.9084 29.845C30.3289 29.5356 29.857 29.0596 29.5404 28.4824C29.2118 27.8874 29.0446 27.1972 29.0446 26.4059C29.0446 25.6027 29.2058 24.9065 29.5344 24.3234C29.845 23.7463 30.3229 23.2762 30.9024 22.9668C31.4878 22.6515 32.1569 22.4968 32.9096 22.4968C33.6683 22.4968 34.3373 22.6515 34.9168 22.9609C35.4783 23.2584 35.9443 23.7106 36.2549 24.2699C36.5715 24.8292 36.7269 25.4777 36.7269 26.2036C36.7089 26.4178 36.685 26.626 36.6432 26.8343ZM33.9311 24.7221C33.6503 24.4722 33.3039 24.3472 32.8977 24.3472C32.4675 24.3472 32.1091 24.4722 31.8283 24.728C31.5476 24.9839 31.3863 25.3587 31.3504 25.8466H34.3433C34.3433 25.3468 34.2119 24.972 33.9311 24.7221Z" fill="#10152A"/>
<path d="M41.4103 22.9252C41.8643 22.6515 42.3841 22.5087 42.9157 22.5146V25.0196H42.2467C41.6254 25.0196 41.1415 25.1505 40.801 25.4182C40.4605 25.68 40.2873 26.1263 40.2873 26.757V30.2258H37.9336V22.5979H40.2813V24.0319C40.5621 23.5737 40.9504 23.1989 41.4103 22.9252Z" fill="#10152A"/>
<path d="M7.24022 40.7632C6.97737 41.1915 6.59505 41.5366 6.08728 41.7865C5.57951 42.0364 4.96421 42.1673 4.24138 42.1673C3.15415 42.1673 2.25808 41.9055 1.55317 41.376C0.848265 40.8465 0.465942 40.1146 0.40023 39.1626H2.89727C2.93312 39.5256 3.06454 39.8171 3.28557 40.0254C3.51258 40.2336 3.79334 40.3407 4.1458 40.3407C4.45046 40.3407 4.68941 40.2574 4.86265 40.0968C5.03589 39.9361 5.1255 39.716 5.11953 39.4423C5.1255 39.2162 5.04187 38.9901 4.88057 38.8294C4.70733 38.6569 4.50422 38.52 4.28319 38.4248C4.04424 38.3177 3.71568 38.1928 3.29752 38.05C2.78377 37.8834 2.28197 37.6751 1.79212 37.4431C1.39188 37.2408 1.0454 36.9373 0.788527 36.5684C0.507759 36.1817 0.370361 35.6759 0.370361 35.0571C0.370361 34.48 0.519706 33.9862 0.812422 33.5697C1.11709 33.1413 1.54122 32.8021 2.03108 32.6058C2.5508 32.3856 3.1422 32.2726 3.81126 32.2726C4.89252 32.2726 5.74677 32.5284 6.38597 33.0401C7.01919 33.5518 7.37762 34.2539 7.46125 35.1464H4.91642C4.86863 34.831 4.75512 34.5752 4.56396 34.3848C4.3728 34.1944 4.1219 34.0933 3.80529 34.0933C3.5305 34.0933 3.30947 34.1647 3.13623 34.3134C2.96896 34.4622 2.88533 34.6704 2.88533 34.956C2.87935 35.1702 2.96299 35.3844 3.11233 35.5391C3.27362 35.7057 3.46479 35.8366 3.67984 35.9258C3.90685 36.027 4.24138 36.1519 4.67149 36.3066C5.19718 36.4732 5.70496 36.6815 6.19481 36.9314C6.60103 37.1456 6.94751 37.455 7.21035 37.8298C7.49709 38.2225 7.63449 38.7342 7.63449 39.359C7.63449 39.8528 7.50307 40.3407 7.24022 40.7632Z" fill="#10152A"/>
<path d="M14.8807 35.1642C15.5498 35.7057 15.968 36.4494 16.1412 37.4014H13.6561C13.6023 37.1039 13.4411 36.8302 13.2021 36.6339C12.9751 36.4494 12.6824 36.3602 12.3359 36.3602C11.9416 36.3542 11.5653 36.5327 11.3204 36.8481C11.0575 37.1694 10.9201 37.6454 10.9201 38.2642C10.9201 38.883 11.0515 39.353 11.3204 39.6803C11.5653 39.9956 11.9416 40.1741 12.3359 40.1681C12.6824 40.1681 12.9691 40.0789 13.2021 39.8945C13.4411 39.6981 13.5964 39.4304 13.6561 39.1269H16.1412C15.968 40.0729 15.5438 40.8226 14.8807 41.3641C14.2117 41.9055 13.3873 42.1792 12.3956 42.1792C11.6429 42.1792 10.9798 42.0245 10.4004 41.7092C9.82093 41.3998 9.349 40.9238 9.03239 40.3526C8.70383 39.7576 8.54254 39.0674 8.54254 38.2761C8.54254 37.4728 8.70383 36.7767 9.03239 36.1936C9.34303 35.6164 9.82093 35.1464 10.3944 34.837C10.9798 34.5216 11.6489 34.3669 12.4016 34.3669C13.3873 34.355 14.2117 34.6228 14.8807 35.1642Z" fill="#10152A"/>
<path d="M24.3193 35.2416C24.8391 35.8247 25.0959 36.6279 25.0959 37.6513V42.084H22.7482V37.925C22.7482 37.4133 22.6108 37.0147 22.342 36.7291C22.0732 36.4435 21.7148 36.3007 21.2667 36.3007C20.7888 36.3007 20.4125 36.4494 20.1317 36.7529C19.8509 37.0563 19.7135 37.4847 19.7135 38.0381V42.084H17.3658V31.9691H19.7135V35.8544C19.9286 35.4022 20.2691 35.0274 20.6932 34.7715C21.1293 34.5097 21.6371 34.3729 22.2225 34.3729C23.1067 34.3669 23.8056 34.6585 24.3193 35.2416Z" fill="#10152A"/>
<path d="M32.2704 34.8251C32.8618 35.1345 33.3577 35.6045 33.6862 36.1876C34.0267 36.7826 34.2 37.4728 34.2 38.2642C34.2 39.0555 34.0267 39.7517 33.6862 40.3407C33.3577 40.9178 32.8618 41.3938 32.2704 41.7032C31.6731 42.0186 30.992 42.1733 30.2334 42.1733C29.4687 42.1733 28.7877 42.0186 28.1903 41.7032C27.593 41.3998 27.0971 40.9238 26.7686 40.3407C26.4281 39.7457 26.2548 39.0555 26.2548 38.2642C26.2548 37.4728 26.4281 36.7767 26.7686 36.1876C27.0971 35.6045 27.593 35.1345 28.1903 34.8251C28.7937 34.5097 29.4747 34.355 30.2334 34.355C30.9861 34.3491 31.6671 34.5097 32.2704 34.8251ZM29.0983 36.86C28.7937 37.1813 28.6384 37.6513 28.6384 38.2642C28.6384 38.877 28.7937 39.3411 29.0983 39.6565C29.3911 39.9718 29.8033 40.1444 30.2334 40.1325C30.6575 40.1444 31.0697 39.9718 31.3564 39.6565C31.6611 39.3411 31.8104 38.877 31.8104 38.2642C31.8104 37.6513 31.6611 37.1872 31.3564 36.86C31.0697 36.5446 30.6575 36.3661 30.2274 36.3721C29.7973 36.3661 29.3851 36.5446 29.0983 36.86Z" fill="#10152A"/>
<path d="M41.04 34.8251C41.6314 35.1345 42.1212 35.6045 42.4558 36.1876C42.8022 36.7826 42.9695 37.4728 42.9695 38.2642C42.9695 39.0555 42.7963 39.7517 42.4558 40.3407C42.1272 40.9178 41.6314 41.3938 41.04 41.7032C40.4426 42.0186 39.7616 42.1733 39.0029 42.1733C38.2442 42.1733 37.5572 42.0186 36.9599 41.7032C36.3625 41.3938 35.8726 40.9238 35.5381 40.3407C35.1976 39.7457 35.0244 39.0555 35.0244 38.2642C35.0244 37.4728 35.1976 36.7767 35.5381 36.1876C35.8667 35.6045 36.3625 35.1345 36.9599 34.8251C37.5632 34.5097 38.2442 34.355 39.0029 34.355C39.7616 34.355 40.4426 34.5097 41.04 34.8251ZM37.8679 36.86C37.5632 37.1813 37.4079 37.6513 37.4079 38.2642C37.4079 38.877 37.5632 39.3411 37.8679 39.6565C38.1606 39.9718 38.5728 40.1444 39.0029 40.1325C39.427 40.1444 39.8392 39.9718 40.126 39.6565C40.4306 39.3411 40.58 38.877 40.58 38.2642C40.58 37.6513 40.4306 37.1872 40.126 36.86C39.8392 36.5446 39.427 36.3661 39.0029 36.3721C38.5728 36.3661 38.1606 36.5446 37.8679 36.86Z" fill="#10152A"/>
<path d="M46.5418 31.9572V42.0781H44.1941V31.9572H46.5418Z" fill="#10152A"/>
<path d="M53.2743 35.075C53.8537 35.5569 54.2181 36.1936 54.3675 36.9909H52.1691C52.1154 36.7053 51.966 36.4435 51.739 36.259C51.512 36.0805 51.2312 35.9913 50.8967 35.9913C50.6339 35.9913 50.4307 36.0508 50.2933 36.1638C50.156 36.2828 50.0783 36.4673 50.0843 36.6517C50.0843 36.8897 50.2097 37.0682 50.4606 37.1872C50.7115 37.3062 51.1058 37.4252 51.6494 37.5442C52.1392 37.6513 52.6172 37.7941 53.0891 37.9607C53.4654 38.1035 53.8059 38.3415 54.0688 38.645C54.3436 38.9603 54.481 39.3887 54.481 39.9302C54.4869 40.3467 54.3615 40.7512 54.1225 41.0904C53.8836 41.4295 53.5431 41.6913 53.0951 41.8817C52.647 42.0721 52.1154 42.1673 51.5001 42.1673C50.4666 42.1673 49.6362 41.9412 49.015 41.4831C48.3937 41.0249 48.0114 40.3764 47.874 39.5256H50.138C50.1739 39.8528 50.3113 40.1027 50.5562 40.2753C50.8011 40.4478 51.1118 40.5371 51.5001 40.5371C51.7629 40.5371 51.966 40.4776 52.1034 40.3526C52.2408 40.2277 52.3185 40.0551 52.3125 39.8707C52.3125 39.6089 52.187 39.4185 51.9361 39.3054C51.6852 39.1924 51.279 39.0734 50.7055 38.9425C50.2276 38.8473 49.7617 38.7223 49.3077 38.5617C48.9373 38.4248 48.6147 38.1987 48.3578 37.9012C48.095 37.5978 47.9576 37.1813 47.9576 36.6517C47.9576 35.9675 48.2204 35.4141 48.7402 34.9917C49.2599 34.5692 50.0006 34.355 50.9505 34.355C51.9182 34.355 52.6888 34.593 53.2743 35.075Z" fill="#10152A"/>
<path d="M64.1466 36.7291H57.0378V36.2888H63.7045V0.987691H28.262V7.36604H27.8199V0.547394H64.1466V36.7291Z" fill="#10152A"/>
</g>
<g clip-path="url(#clip1_1_221)">
<path d="M153.968 17.1528C152.179 14.828 150.391 12.5031 148.577 10.1454C147.625 11.3769 146.937 12.7395 146.19 14.0817L145.859 13.9232C146.045 13.2466 146.204 12.5646 146.421 11.9004C147.024 10.0511 148.023 8.35499 149.348 6.92946C151.125 5.01053 153.32 3.81189 155.854 3.20505C157.375 2.76222 160.226 2.73078 160.226 2.73078L160.307 3.10527C157.098 3.40323 154.261 4.52533 151.862 6.73265C153.713 9.43473 155.554 12.1204 157.382 14.7897L157.339 15.2913C155.798 14.0762 154.302 12.8954 152.793 11.7063L152.485 11.9277C153.155 13.7099 153.823 15.4895 154.489 17.2649L154.466 17.351C154.32 17.31 154.173 17.2676 154.025 17.2266L153.966 17.1514L153.968 17.1528Z" fill="#A15725"/>
<path d="M157.415 14.7091C157.326 11.7787 157.238 8.84839 157.148 5.87706C155.654 6.31852 154.298 7.02377 152.906 7.67571L152.73 7.35316C153.278 6.91306 153.806 6.45247 154.372 6.04107C155.944 4.893 157.747 4.10028 159.657 3.71758C162.222 3.19822 164.706 3.50847 167.116 4.49664C168.609 5.02557 170.94 6.66568 170.94 6.66568L170.787 7.01694C168.009 5.38503 165.051 4.63741 161.813 5.02694C161.73 8.30032 161.65 11.5532 161.569 14.7856L161.24 15.1669C160.702 13.2822 160.18 11.4493 159.654 9.60421H159.275C158.774 11.4411 158.273 13.274 157.775 15.104L157.705 15.1601C157.61 15.0412 157.516 14.9209 157.42 14.802L157.416 14.7063L157.415 14.7091Z" fill="#F26661"/>
<path d="M159.465 2.86472C160.119 2.86472 160.649 2.22343 160.649 1.43236C160.649 0.64129 160.119 0 159.465 0C158.811 0 158.281 0.64129 158.281 1.43236C158.281 2.22343 158.811 2.86472 159.465 2.86472Z" fill="#F26661"/>
<path d="M161.596 14.7268C163.25 12.3036 164.903 9.88166 166.579 7.4256C165.11 6.90623 163.599 6.68072 162.088 6.39096L162.136 6.02741C162.837 5.99324 163.536 5.929 164.235 5.929C166.183 5.92353 168.109 6.34039 169.879 7.15088C172.26 8.23609 174.087 9.9459 175.455 12.1587C176.351 13.4626 177.272 16.1578 177.272 16.1578L176.941 16.3505C175.654 13.4011 173.701 11.0598 170.852 9.473C168.859 12.0726 166.879 14.6571 164.91 17.2253L164.42 17.3414C165.095 15.5004 165.751 13.7113 166.411 11.9099L166.104 11.6872C164.617 12.879 163.134 14.0694 161.652 15.2558L161.562 15.2612C161.555 15.1095 161.55 14.9564 161.543 14.8047L161.595 14.7255L161.596 14.7268Z" fill="#302E8C"/>
<path d="M172.028 5.88536C172.493 5.24537 172.442 4.41544 171.913 4.03165C171.384 3.64787 170.578 3.85556 170.112 4.49555C169.646 5.13554 169.698 5.96548 170.227 6.34926C170.756 6.73305 171.562 6.52535 172.028 5.88536Z" fill="#302E8C"/>
<path d="M164.957 17.1952C167.723 16.2138 170.491 15.2339 173.296 14.2389C172.417 12.9541 171.332 11.8799 170.283 10.7564L170.536 10.4912C171.124 10.8767 171.724 11.2375 172.29 11.6502C173.865 12.7942 175.173 14.2662 176.123 15.9637C177.402 18.2435 177.866 20.6995 177.661 23.2923C177.613 24.8736 176.763 27.5907 176.763 27.5907L176.381 27.5511C177.088 24.4117 176.895 21.3706 175.533 18.4116C172.387 19.3355 169.261 20.254 166.153 21.1656L165.689 20.9702C167.322 19.8822 168.91 18.8244 170.508 17.7597L170.391 17.3988C168.486 17.4849 166.586 17.5697 164.689 17.6544L164.613 17.6052C164.698 17.4781 164.783 17.3524 164.868 17.2253L164.957 17.1911V17.1952Z" fill="#49BFAA"/>
<path d="M178.605 16.2148C179.359 15.9728 179.809 15.2727 179.609 14.6511C179.409 14.0294 178.635 13.7216 177.881 13.9636C177.126 14.2055 176.677 14.9056 176.877 15.5273C177.077 16.1489 177.851 16.4567 178.605 16.2148Z" fill="#49BFAA"/>
<path d="M166.226 21.182C169.044 22.0034 171.863 22.8262 174.719 23.6599C174.76 22.1046 174.51 20.5998 174.318 19.0758L174.68 19.0089C174.929 19.6649 175.205 20.3087 175.422 20.9729C176.028 22.8208 176.227 24.778 175.999 26.7106C175.701 29.3074 174.636 31.5694 172.95 33.5525C171.984 34.8059 169.701 36.5129 169.701 36.5129L169.415 36.2587C171.828 34.1266 173.456 31.5489 174.086 28.352C170.993 27.2627 167.92 26.1789 164.866 25.1019L164.605 24.6727C166.567 24.7452 168.473 24.8162 170.394 24.8859L170.512 24.5251C168.917 23.4809 167.326 22.4394 165.738 21.3993L165.706 21.316C165.848 21.2627 165.992 21.2094 166.134 21.1574L166.226 21.182Z" fill="#FFE600"/>
<path d="M179.601 27.6824C179.804 27.0615 179.357 26.3598 178.604 26.1151C177.85 25.8703 177.075 26.1753 176.873 26.7962C176.671 27.4171 177.118 28.1189 177.871 28.3636C178.624 28.6083 179.399 28.3033 179.601 27.6824Z" fill="#FFE600"/>
<path d="M164.924 25.1388C166.713 27.4636 168.501 29.7885 170.314 32.1461C171.267 30.9147 171.954 29.552 172.702 28.2099L173.033 28.3684C172.847 29.045 172.688 29.727 172.47 30.3912C171.868 32.2405 170.869 33.9366 169.544 35.3621C167.767 37.2811 165.571 38.4797 163.038 39.0865C161.517 39.5294 158.666 39.5608 158.666 39.5608L158.585 39.1863C161.793 38.8884 164.631 37.7663 167.029 35.5589C165.179 32.8569 163.337 30.1712 161.51 27.5019L161.552 27.0003C163.094 28.2154 164.59 29.3962 166.098 30.5853L166.406 30.3639C165.737 28.5816 165.069 26.8021 164.402 25.0267L164.426 24.9406C164.572 24.9816 164.719 25.024 164.866 25.065L164.925 25.1401L164.924 25.1388Z" fill="#A15725"/>
<path d="M171.877 38.2634C172.407 37.8814 172.462 37.0517 171.998 36.4101C171.535 35.7685 170.729 35.558 170.199 35.9399C169.668 36.3218 169.614 37.1516 170.078 37.7932C170.541 38.4348 171.347 38.6453 171.877 38.2634Z" fill="#A15725"/>
<path d="M161.52 27.5757C161.609 30.506 161.696 33.4364 161.787 36.4077C163.28 35.9662 164.637 35.261 166.029 34.609L166.204 34.9316C165.656 35.3717 165.128 35.8323 164.563 36.2437C162.99 37.3918 161.187 38.1845 159.278 38.5672C156.712 39.0865 154.228 38.7763 151.819 37.7881C150.325 37.2592 147.994 35.6191 147.994 35.6191L148.147 35.2678C150.925 36.8997 153.883 37.6473 157.122 37.2578C157.204 33.9844 157.284 30.7316 157.365 27.4992L157.694 27.1178C158.232 29.0026 158.755 30.8354 159.28 32.6805H159.659C160.16 30.8436 160.661 29.0108 161.16 27.1807L161.229 27.1247C161.324 27.2436 161.418 27.3639 161.514 27.4828L161.518 27.5784L161.52 27.5757Z" fill="#F26661"/>
<path d="M159.468 42.2848C160.122 42.2848 160.652 41.6435 160.652 40.8524C160.652 40.0613 160.122 39.42 159.468 39.42C158.814 39.42 158.284 40.0613 158.284 40.8524C158.284 41.6435 158.814 42.2848 159.468 42.2848Z" fill="#F26661"/>
<path d="M157.324 27.5306C155.683 29.9621 154.042 32.3922 152.379 34.8564C153.85 35.369 155.363 35.5863 156.874 35.8678L156.829 36.2314C156.128 36.2697 155.428 36.3366 154.729 36.3407C152.781 36.3571 150.854 35.9485 149.08 35.1462C146.694 34.0733 144.858 32.373 143.478 30.1657C142.575 28.8659 141.641 26.1762 141.641 26.1762L141.971 25.9807C143.272 28.9247 145.237 31.255 148.095 32.8268C150.075 30.2163 152.043 27.6222 153.998 25.0445L154.488 24.9256C153.823 26.7693 153.175 28.5625 152.525 30.3666L152.833 30.588C154.314 29.388 155.791 28.1921 157.267 26.9976L157.357 26.9921C157.364 27.1438 157.371 27.2955 157.379 27.4486L157.327 27.5292L157.324 27.5306Z" fill="#302E8C"/>
<path d="M148.859 37.8024C149.321 37.1601 149.265 36.3304 148.734 35.9493C148.203 35.5682 147.398 35.78 146.936 36.4223C146.473 37.0647 146.529 37.8943 147.06 38.2754C147.591 38.6565 148.396 38.4448 148.859 37.8024Z" fill="#302E8C"/>
<path d="M153.935 25.095C151.168 26.0764 148.401 27.0563 145.596 28.0513C146.475 29.3361 147.56 30.4104 148.609 31.5338L148.356 31.799C147.768 31.4136 147.167 31.0527 146.602 30.64C145.026 29.496 143.719 28.024 142.769 26.3265C141.489 24.0467 141.025 21.5907 141.231 18.9979C141.279 17.4166 142.129 14.6995 142.129 14.6995L142.511 14.7391C141.804 17.8786 141.997 20.9196 143.359 23.8786C146.505 22.9547 149.631 22.0362 152.739 21.1246L153.203 21.3201C151.57 22.408 149.982 23.4659 148.384 24.5306L148.501 24.8914C150.406 24.8053 152.306 24.7206 154.203 24.6358L154.278 24.685C154.194 24.8121 154.109 24.9379 154.024 25.065L153.935 25.0991V25.095Z" fill="#49BFAA"/>
<path d="M141.01 28.3353C141.764 28.0933 142.214 27.3932 142.014 26.7716C141.814 26.1499 141.04 25.8422 140.286 26.0841C139.531 26.3261 139.082 27.0262 139.282 27.6478C139.482 28.2694 140.256 28.5772 141.01 28.3353Z" fill="#49BFAA"/>
<path d="M152.666 21.1082C149.848 20.2868 147.029 19.464 144.172 18.6303C144.131 20.1856 144.382 21.6904 144.573 23.2144L144.212 23.2813C143.963 22.6253 143.686 21.9816 143.47 21.3173C142.864 19.4695 142.665 17.5123 142.892 15.5797C143.191 12.9828 144.256 10.7208 145.942 8.73768C146.907 7.48436 149.191 5.77728 149.191 5.77728L149.477 6.0315C147.063 8.16364 145.436 10.7413 144.806 13.9382C147.898 15.0275 150.971 16.1113 154.025 17.1883L154.287 17.6175C152.325 17.5451 150.418 17.474 148.498 17.4043L148.38 17.7651C149.975 18.8093 151.565 19.8508 153.153 20.8909L153.186 20.9743C153.044 21.0276 152.9 21.0809 152.758 21.1328L152.666 21.1082Z" fill="#FFE600"/>
<path d="M142.023 15.4999C142.225 14.8789 141.778 14.1772 141.025 13.9325C140.271 13.6878 139.496 13.9927 139.294 14.6137C139.092 15.2346 139.539 15.9363 140.292 16.181C141.045 16.4257 141.82 16.1208 142.023 15.4999Z" fill="#FFE600"/>
<path d="M148.693 6.34694C149.224 5.965 149.278 5.13525 148.815 4.49364C148.351 3.85203 147.545 3.64152 147.015 4.02346C146.485 4.4054 146.43 5.23515 146.894 5.87676C147.357 6.51837 148.163 6.72888 148.693 6.34694Z" fill="#A15725"/>
<path d="M110.523 18.7793V20.3975H113.141V21.808H110.523V23.5246H113.469V25.0226H108.651V17.2922H113.469V18.7793H110.523Z" fill="#181818"/>
<path d="M120.193 17.2922V18.7793H118.09V25.0226H116.207V18.7793H114.126V17.2922H120.193Z" fill="#181818"/>
<path d="M126.128 17.2922V18.7793H122.952V20.474H125.405V21.8955H122.952V25.0226H121.08V17.2922H126.128Z" fill="#181818"/>
<path d="M132.857 17.6804C133.453 18.0193 133.921 18.4895 134.265 19.0909C134.608 19.6922 134.779 20.3715 134.779 21.1301C134.779 21.8886 134.605 22.5693 134.259 23.1747C133.913 23.7802 133.442 24.2517 132.846 24.5907C132.251 24.9297 131.593 25.0991 130.87 25.0991C130.147 25.0991 129.489 24.9297 128.893 24.5907C128.298 24.2517 127.827 23.7802 127.481 23.1747C127.134 22.5693 126.96 21.8886 126.96 21.1301C126.96 20.3715 127.134 19.6922 127.481 19.0909C127.827 18.4895 128.298 18.0193 128.893 17.6804C129.489 17.3414 130.147 17.1719 130.87 17.1719C131.593 17.1719 132.262 17.3414 132.857 17.6804ZM129.408 19.5064C129.047 19.9041 128.866 20.4453 128.866 21.1301C128.866 21.8148 129.047 22.3479 129.408 22.7483C129.769 23.1488 130.257 23.3497 130.87 23.3497C131.483 23.3497 131.961 23.1488 132.326 22.7483C132.692 22.3479 132.874 21.808 132.874 21.1301C132.874 20.4522 132.693 19.9123 132.332 19.5118C131.97 19.1114 131.483 18.9105 130.87 18.9105C130.257 18.9105 129.769 19.1086 129.408 19.5064Z" fill="#181818"/>
<path d="M189.391 17.2977V18.7847H186.215V20.4795H188.668V21.9009H186.215V25.0281H184.342V17.2977H189.391Z" fill="#181818"/>
<path d="M192.327 18.7847V20.403H194.944V21.8135H192.327V23.5301H195.273V25.0281H190.454V17.2977H195.273V18.7847H192.327Z" fill="#181818"/>
<path d="M198.306 18.7847V20.403H200.923V21.8135H198.306V23.5301H201.252V25.0281H196.433V17.2977H201.252V18.7847H198.306Z" fill="#181818"/>
<path d="M208.078 17.6858C208.674 18.0248 209.142 18.495 209.485 19.0963C209.829 19.6977 210 20.377 210 21.1355C210 21.8941 209.826 22.5747 209.48 23.1802C209.134 23.7857 208.663 24.2572 208.067 24.5962C207.472 24.9351 206.813 25.1046 206.091 25.1046C205.368 25.1046 204.709 24.9351 204.114 24.5962C203.519 24.2572 203.048 23.7857 202.701 23.1802C202.355 22.5747 202.181 21.8941 202.181 21.1355C202.181 20.377 202.355 19.6977 202.701 19.0963C203.048 18.495 203.519 18.0248 204.114 17.6858C204.709 17.3469 205.368 17.1774 206.091 17.1774C206.813 17.1774 207.483 17.3469 208.078 17.6858ZM204.629 19.5118C204.267 19.9096 204.087 20.4508 204.087 21.1355C204.087 21.8203 204.267 22.3533 204.629 22.7538C204.99 23.1542 205.477 23.3552 206.091 23.3552C206.704 23.3552 207.182 23.1542 207.547 22.7538C207.912 22.3533 208.095 21.8135 208.095 21.1355C208.095 20.4576 207.914 19.9178 207.552 19.5173C207.191 19.1168 206.704 18.9159 206.091 18.9159C205.477 18.9159 204.99 19.1141 204.629 19.5118Z" fill="#181818"/>
<path d="M162.461 20.4248C162.834 22.0567 161.81 23.6804 160.175 24.0522C158.541 24.424 156.915 23.4016 156.543 21.7697C156.17 20.1378 157.194 18.5141 158.828 18.1423C159.05 18.0918 159.276 18.0672 159.505 18.0672C160.081 18.0672 160.645 18.2312 161.13 18.5414L161.676 17.9961C161.041 17.5492 160.282 17.3086 159.505 17.31C157.402 17.3045 155.694 19.002 155.688 21.1014C155.683 23.2007 157.383 24.9064 159.486 24.9119C161.588 24.9174 163.296 23.2198 163.302 21.1205C163.302 20.6749 163.227 20.2335 163.075 19.8153L162.463 20.4262L162.461 20.4248Z" fill="#0096D1"/>
<path d="M163.301 18.5141L158.97 22.8426L157.36 21.2353L157.895 20.7009L158.97 21.7738L162.767 17.9838L163.302 18.5141H163.301Z" fill="#F15A5F"/>
</g>
<defs>
<clipPath id="clip0_1_221">
<rect width="64.517" height="42.7207" fill="white"/>
</clipPath>
<clipPath id="clip1_1_221">
<rect width="101.349" height="42.2848" fill="white" transform="translate(108.651)"/>
</clipPath>
</defs>
</svg>
